<svg xmlns="http://www.w3.org/2000/svg" width="512" height="512" viewBox="0 0 512 512" version="1.1">
	<path d="M 39.725 1.566 C 30.726 3.746, 23.381 7.711, 16.667 14.011 C 8.824 21.371, 4.565 28.471, 2.018 38.428 C 0.025 46.222, 0 48.934, 0.015 255.910 C 0.031 484.625, -0.305 471.083, 5.676 483.824 C 9.263 491.463, 20.594 502.714, 28.352 506.337 C 41.126 512.304, 27.645 511.970, 256 511.970 C 484.355 511.970, 470.874 512.304, 483.648 506.337 C 495.542 500.781, 507.075 486.332, 510.050 473.257 C 510.646 470.640, 511.553 467.719, 512.066 466.764 C 513.224 464.610, 513.351 43.665, 512.194 44.380 C 511.750 44.654, 510.882 42.471, 510.265 39.529 C 508.332 30.310, 504.212 23.053, 496.580 15.420 C 488.847 7.688, 482.233 3.974, 471.824 1.520 C 462.616 -0.650, 48.692 -0.607, 39.725 1.566 M 117.266 42.912 C 108.799 43.972, 102.458 47.975, 98.324 54.868 C 94.379 61.446, 93.508 66.314, 94.995 73.476 C 97.220 84.196, 107.493 93, 117.775 93 L 122.191 93 121.453 161.500 L 120.715 230 127.176 230 C 150.706 230, 168.431 248.761, 166.774 271.913 C 165.300 292.522, 147.588 308, 125.481 308 L 121.235 308 120.550 350.250 C 120.173 373.487, 120.007 404.528, 120.182 419.229 L 120.500 445.958 137.500 434.424 L 154.500 422.889 155 439.695 C 155.480 455.828, 155.611 456.689, 158.277 461.223 C 166.415 475.068, 186.585 475.068, 194.723 461.223 L 197.500 456.500 197.803 425.794 L 198.106 395.087 191.746 388.794 C 182.304 379.451, 180.500 375.069, 180.500 361.479 C 180.500 351.049, 180.676 350.101, 183.774 343.807 C 187.854 335.520, 195.746 328.037, 203.753 324.864 C 211.873 321.646, 225.141 321.652, 233.282 324.877 C 243.945 329.101, 250.807 336.054, 255.354 347.244 L 257.657 352.909 264.297 348.454 C 267.949 346.005, 271.127 344, 271.360 344 C 271.592 344, 271.963 350.637, 272.183 358.750 C 272.617 374.676, 273.365 377.387, 278.759 382.569 C 287.040 390.525, 299.365 391.009, 307.684 383.704 C 314.674 377.567, 314.953 376.036, 314.978 343.750 C 314.990 327.938, 314.759 315, 314.465 315 C 314.170 315, 312.840 315.714, 311.509 316.586 C 309.228 318.081, 308.785 318.008, 303.874 315.336 C 301.006 313.776, 296.691 310.531, 294.283 308.124 C 279.031 292.876, 280.126 267.139, 296.671 252.018 C 304.143 245.189, 311.087 242.653, 322.552 242.568 C 331.090 242.504, 332.042 242.717, 339.331 246.319 C 352.122 252.641, 358.718 261.435, 361.070 275.305 C 361.705 279.047, 362.061 282.235, 361.862 282.389 C 361.663 282.543, 357.337 285.492, 352.250 288.944 L 343 295.219 343 338.243 C 343 369.389, 343.340 382.404, 344.230 385.384 C 346.714 393.698, 355.997 400.032, 365.616 399.978 C 373.883 399.931, 382.379 393.352, 384.859 385.078 C 385.654 382.421, 386.013 363.744, 386.044 323.384 L 386.088 265.500 399.098 256.683 L 412.107 247.867 413.962 250.225 C 414.982 251.521, 418.205 253.882, 421.124 255.471 C 434.274 262.628, 450.616 256.736, 456.469 242.728 C 458.428 238.040, 458.438 227.983, 456.488 223.317 C 453.953 217.251, 436.794 192.289, 425.336 178 C 412.594 162.110, 390.891 140.015, 375.675 127.444 C 319.782 81.264, 254.012 53.003, 182.500 44.437 C 167.859 42.683, 126.763 41.722, 117.266 42.912 M 0.491 256 C 0.491 372.325, 0.607 419.912, 0.750 361.750 C 0.892 303.587, 0.892 208.412, 0.750 150.250 C 0.607 92.087, 0.491 139.675, 0.491 256 M 164.657 94.750 C 164.403 95.162, 163.649 98.284, 162.980 101.688 C 160.664 113.478, 164.756 126.331, 173.718 135.414 C 194.024 155.994, 229.333 147.607, 237.995 120.145 C 241.331 109.570, 241.275 109.448, 231.750 106.583 C 213.998 101.244, 199.247 98.140, 179.064 95.497 C 165.893 93.773, 165.277 93.741, 164.657 94.750 M 228.872 113.750 C 227.629 115.336, 227.664 115.371, 229.250 114.128 C 230.213 113.373, 231 112.585, 231 112.378 C 231 111.555, 230.179 112.084, 228.872 113.750 M 195.750 125.662 C 196.438 125.940, 197.563 125.940, 198.250 125.662 C 198.938 125.385, 198.375 125.158, 197 125.158 C 195.625 125.158, 195.063 125.385, 195.750 125.662 M 204.813 125.683 C 205.534 125.972, 206.397 125.936, 206.729 125.604 C 207.061 125.272, 206.471 125.036, 205.417 125.079 C 204.252 125.127, 204.015 125.364, 204.813 125.683 M 306.849 146.750 C 295.657 159.154, 293.080 175.026, 299.893 189.585 C 306.106 202.863, 318.069 210.938, 332.771 211.780 C 342.142 212.316, 349.997 210.129, 357.731 204.829 C 362.105 201.832, 369 193.657, 369 191.468 C 369 189.979, 351.027 173.199, 338.705 163.183 C 330.376 156.414, 311.780 143, 310.723 143 C 310.454 143, 308.710 144.688, 306.849 146.750 M 305 177.378 C 305 177.585, 305.788 178.373, 306.750 179.128 C 308.336 180.371, 308.371 180.336, 307.128 178.750 C 305.821 177.084, 305 176.555, 305 177.378 M 222.024 183.540 C 214.363 185.687, 209.086 189.032, 203.204 195.467 C 185.629 214.697, 191.999 245.045, 215.997 256.418 C 221.842 259.188, 223.462 259.500, 232 259.500 C 240.587 259.500, 242.125 259.200, 248 256.375 C 267.146 247.169, 275.369 226.469, 267.868 206.359 C 264.791 198.109, 254.826 188.185, 246.501 185.080 C 238.688 182.165, 229.083 181.561, 222.024 183.540 M 229.750 238.706 C 230.988 238.944, 233.012 238.944, 234.250 238.706 C 235.488 238.467, 234.475 238.272, 232 238.272 C 229.525 238.272, 228.512 238.467, 229.750 238.706" stroke="none" fill="black" fill-rule="evenodd"/>
</svg>